# xmcd
#
# Track frame offsets:
#	150
#	15786
#	36556
#	53052
#	71406
#	84319
#	99848
#	112353
#	124422
#	137111
#	150266
#	172035
#	187770
#
# Disc length: 2785 seconds
#
# Revision: 1
# Processed by: cddbd v1.5.2PL0 Copyright (c) Steve Scherf et al.
# Submitted via: audiograbber 1.83.01
#
DISCID=a20adf0d
DTITLE=Gold City - Their Best
DYEAR=2006
DGENRE=Southern Gospel
TTITLE0=John Saw
TTITLE1=Under Control
TTITLE2=I Believe
TTITLE3=Hide Me Behind The Cross
TTITLE4=Get Up, Get Ready
TTITLE5=Mercy Rescues Me
TTITLE6=In Time, On Time, Every Time
TTITLE7=I'm Not What I Was
TTITLE8=Land Of No Time
TTITLE9=When I Get Carried Away
TTITLE10=Are You Ready
TTITLE11=He Said
TTITLE12=Midnight Cry
EXTD=
EXTT0=
EXTT1=
EXTT2=
EXTT3=
EXTT4=
EXTT5=
EXTT6=
EXTT7=
EXTT8=
EXTT9=
EXTT10=
EXTT11=
EXTT12=
PLAYORDER=
